# Rhino

o object_1
v 0 6 7
v 6 6 3.5
v 0 25 0
v 6 6 3.5
v 6 6 -3.5
v 0 25 0
v 6 6 -3.5
v 0 6 -7
v 0 25 0
v 0 6 -7
v -6 6 -3.5
v 0 25 0
v -6 6 -3.5
v -6 6 3.5
v 0 25 0
v -6 6 3.5
v 0 6 7
v 0 25 0
v 0 6 7
v 6 6 3.5
v 6 6 -3.5
v 0 6 -7
v -6 6 -3.5
v -6 6 3.5
vt 0.4762165546417236 0.3518924117088318
vt 0.6493461728096008 0.3518924117088318
vt 0.5627813935279846 0.851597011089325
vt 0.5008147358894348 0.1759462058544159
vt 0.5008147358894348 0.3504275679588318
vt 0 0.2631868720054627
vt 0.8254055380821228 0
vt 0.99853515625 0
vt 0.911970317363739 0.5011694431304932
vt 0.3016220629215241 0.3518924117088318
vt 0.4747517108917236 0.3518924117088318
vt 0.3881868720054627 0.851597011089325
vt 0.5008147358894348 0
vt 0.5008147358894348 0.1744813621044159
vt 0 0.08724068105220795
vt 0.6508110165596008 0
vt 0.8239406943321228 0
vt 0.7373758554458618 0.5011694431304932
vt 0.150078609585762 0.7037848234176636
vt 0 0.6158117055892944
vt 0 0.4398654997348785
vt 0.150078609585762 0.3518924117088318
vt 0.3001572191715241 0.4398654997348785
vt 0.3001572191715241 0.6158117055892944
vn 0.4801444113254547 0.3032490909099579 0.8231046795845032
vn 0.4801444113254547 0.3032490909099579 0.8231046795845032
vn 0.4801444113254547 0.3032490909099579 0.8231046795845032
vn 0.9535826444625855 0.3011313676834106 3.024826917143419e-16
vn 0.9535826444625855 0.3011313676834106 3.024826917143419e-16
vn 0.9535826444625855 0.3011313676834106 2.794215315110739e-16
vn 0.4801444113254547 0.3032490909099579 -0.8231046795845032
vn 0.4801444113254547 0.3032490909099579 -0.8231046795845032
vn 0.4801444113254547 0.3032490909099579 -0.8231046795845032
vn -0.4801444113254547 0.3032490909099579 -0.8231046795845032
vn -0.4801444113254547 0.3032490909099579 -0.8231046795845032
vn -0.4801444113254547 0.3032490909099579 -0.8231046795845032
vn -0.9535826444625855 0.3011313676834106 -9.074481016128053e-16
vn -0.9535826444625855 0.3011313676834106 -9.074481016128053e-16
vn -0.9535826444625855 0.3011313676834106 -6.985538420125747e-16
vn -0.4801444113254547 0.3032490909099579 0.8231046795845032
vn -0.4801444113254547 0.3032490909099579 0.8231046795845032
vn -0.4801444113254547 0.3032490909099579 0.8231046795845032
vn 0 -1 3.965082325339058e-17
vn 0 -1 0
vn 0 -1 0
vn 0 -1 0
vn 0 -1 0
vn 0 -1 0
f 3/3/3 1/1/1 2/2/2
f 6/6/6 4/4/4 5/5/5
f 9/9/9 7/7/7 8/8/8
f 12/12/12 10/10/10 11/11/11
f 15/15/15 13/13/13 14/14/14
f 18/18/18 16/16/16 17/17/17
f 19/19/19 22/22/22 21/21/21
f 23/23/23 22/22/22 24/24/24
f 21/21/21 20/20/20 19/19/19
f 24/24/24 22/22/22 19/19/19
