# Rhino

o object_1
v 0 -7 6
v 6 -3.5 6
v 0 0 25
v 6 -3.5 6
v 6 3.5 6
v 0 0 25
v 6 3.5 6
v 0 7 6
v 0 0 25
v 0 7 6
v -6 3.5 6
v 0 0 25
v -6 3.5 6
v -6 -3.5 6
v 0 0 25
v -6 -3.5 6
v 0 -7 6
v 0 0 25
v 0 -7 6
v 6 -3.5 6
v 6 3.5 6
v 0 7 6
v -6 3.5 6
v -6 -3.5 6
vt 0.4762165546417236 0.3518924117088318
vt 0.6493461728096008 0.3518924117088318
vt 0.5627813935279846 0.851597011089325
vt 0.5008147358894348 0.1759462058544159
vt 0.5008147358894348 0.3504275679588318
vt 0 0.2631868720054627
vt 0.8254055380821228 0
vt 0.99853515625 0
vt 0.911970317363739 0.5011694431304932
vt 0.3016220629215241 0.3518924117088318
vt 0.4747517108917236 0.3518924117088318
vt 0.3881868720054627 0.851597011089325
vt 0.5008147358894348 0
vt 0.5008147358894348 0.1744813621044159
vt 0 0.08724068105220795
vt 0.6508110165596008 0
vt 0.8239406943321228 0
vt 0.7373758554458618 0.5011694431304932
vt 0.150078609585762 0.7037848234176636
vt 0 0.6158117055892944
vt 0 0.4398654997348785
vt 0.150078609585762 0.3518924117088318
vt 0.3001572191715241 0.4398654997348785
vt 0.3001572191715241 0.6158117055892944
vn 0.4801444113254547 -0.8231046795845032 0.3032490909099579
vn 0.4801444113254547 -0.8231046795845032 0.3032490909099579
vn 0.4801444113254547 -0.8231046795845032 0.3032490909099579
vn 0.9535826444625855 -3.024826917143419e-16 0.3011313676834106
vn 0.9535826444625855 -3.024826917143419e-16 0.3011313676834106
vn 0.9535826444625855 -2.794215315110739e-16 0.3011313676834106
vn 0.4801444113254547 0.8231046795845032 0.3032490909099579
vn 0.4801444113254547 0.8231046795845032 0.3032490909099579
vn 0.4801444113254547 0.8231046795845032 0.3032490909099579
vn -0.4801444113254547 0.8231046795845032 0.3032490909099579
vn -0.4801444113254547 0.8231046795845032 0.3032490909099579
vn -0.4801444113254547 0.8231046795845032 0.3032490909099579
vn -0.9535826444625855 9.074481016128053e-16 0.3011313676834106
vn -0.9535826444625855 9.074481016128053e-16 0.3011313676834106
vn -0.9535826444625855 6.985538420125747e-16 0.3011313676834106
vn -0.4801444113254547 -0.8231046795845032 0.3032490909099579
vn -0.4801444113254547 -0.8231046795845032 0.3032490909099579
vn -0.4801444113254547 -0.8231046795845032 0.3032490909099579
vn 0 -3.965082325339058e-17 -1
vn 0 0 -1
vn 0 0 -1
vn 0 0 -1
vn 0 0 -1
vn 0 0 -1
f 3/3/3 1/1/1 2/2/2
f 6/6/6 4/4/4 5/5/5
f 9/9/9 7/7/7 8/8/8
f 12/12/12 10/10/10 11/11/11
f 15/15/15 13/13/13 14/14/14
f 18/18/18 16/16/16 17/17/17
f 19/19/19 22/22/22 21/21/21
f 23/23/23 22/22/22 24/24/24
f 21/21/21 20/20/20 19/19/19
f 24/24/24 22/22/22 19/19/19
o object_2
v -1.5 -1.5 0
v -1.5 -1.5 6
v 1.5 -1.5 0
v 1.5 -1.5 6
v 1.5 -1.5 0
v 1.5 -1.5 6
v 1.5 1.5 0
v 1.5 1.5 6
v 1.5 1.5 0
v 1.5 1.5 6
v -1.5 1.5 0
v -1.5 1.5 6
v -1.5 1.5 0
v -1.5 1.5 6
v -1.5 -1.5 0
v -1.5 -1.5 6
v -1.5 -1.5 0
v 1.5 -1.5 0
v 1.5 1.5 0
v -1.5 1.5 0
v -1.5 -1.5 6
v 1.5 -1.5 6
v 1.5 1.5 6
v -1.5 1.5 6
vt 0 0
vt 0 0.749999463558197
vt 0.25 0
vt 0.25 0.749999463558197
vt 0.25 0
vt 0.25 0.749999463558197
vt 0.5 0
vt 0.5 0.749999463558197
vt 0.5 0
vt 0.5 0.749999463558197
vt 0.75 0
vt 0.75 0.749999463558197
vt 0.75 0
vt 0.75 0.749999463558197
vt 1 0
vt 1 0.749999463558197
vt 0 1
vt 0.25 1
vt 0.25 0.7500001788139343
vt 0 0.7500001788139343
vt 0.75 0.7500001788139343
vt 1 0.7500001788139343
vt 1 1
vt 0.75 1
vn 0 -1 0
vn 0 -1 0
vn 0 -1 0
vn 0 -1 0
vn 1 0 0
vn 1 0 0
vn 1 0 0
vn 1 0 0
vn 0 1 0
vn 0 1 0
vn 0 1 0
vn 0 1 0
vn -1 0 0
vn -1 0 0
vn -1 0 0
vn -1 0 0
vn 0 0 -1
vn 0 0 -1
vn 0 0 -1
vn 0 0 -1
vn 0 0 1
vn 0 0 1
vn 0 0 1
vn 0 0 1
f 25/25/25 27/27/27 28/28/28 26/26/26
f 29/29/29 31/31/31 32/32/32 30/30/30
f 33/33/33 35/35/35 36/36/36 34/34/34
f 37/37/37 39/39/39 40/40/40 38/38/38
f 42/42/42 41/41/41 44/44/44
f 44/44/44 43/43/43 42/42/42
f 46/46/46 48/48/48 45/45/45
f 48/48/48 46/46/46 47/47/47
